<svg width="33" height="33" viewBox="0 0 33 33" fill="none" xmlns="http://www.w3.org/2000/svg">
<g clip-path="url(#clip0_3_214)">
<path fill-rule="evenodd" clip-rule="evenodd" d="M16.2534 0C7.26571 0 0 7.31927 0 16.3742C0 23.6123 4.65539 29.7392 11.1136 31.9077C11.9211 32.0707 12.2169 31.5554 12.2169 31.1219C12.2169 30.7423 12.1902 29.4411 12.1902 28.0854C7.66893 29.0615 6.72741 26.1335 6.72741 26.1335C6.0008 24.2358 4.92421 23.748 4.92421 23.748C3.44438 22.745 5.032 22.745 5.032 22.745C6.67351 22.8534 7.53486 24.4257 7.53486 24.4257C8.98773 26.9196 11.3289 26.215 12.2708 25.7811C12.4052 24.7238 12.836 23.9919 13.2935 23.5853C9.68739 23.2057 5.89334 21.7961 5.89334 15.5065C5.89334 13.7173 6.53877 12.2535 7.56147 11.115C7.40011 10.7084 6.83487 9.02732 7.72316 6.77731C7.72316 6.77731 9.09552 6.34348 12.1899 8.45808C13.5147 8.09966 14.881 7.91733 16.2534 7.91579C17.6258 7.91579 19.0248 8.10576 20.3166 8.45808C23.4114 6.34348 24.7837 6.77731 24.7837 6.77731C25.672 9.02732 25.1064 10.7084 24.9451 11.115C25.9947 12.2535 26.6135 13.7173 26.6135 15.5065C26.6135 21.7961 22.8195 23.1785 19.1865 23.5853C19.7787 24.1004 20.2897 25.0762 20.2897 26.6215C20.2897 28.8173 20.2631 30.5796 20.2631 31.1215C20.2631 31.5554 20.5592 32.0707 21.3663 31.908C27.8245 29.7389 32.4799 23.6123 32.4799 16.3742C32.5065 7.31927 25.2142 0 16.2534 0Z" fill="white"/>
</g>
<defs>
<clipPath id="clip0_3_214">
<rect width="32.48" height="32.48" fill="white"/>
</clipPath>
</defs>
</svg>
