<svg width="33" height="33" viewBox="0 0 33 33" fill="none" xmlns="http://www.w3.org/2000/svg">
<g clip-path="url(#clip0_3_426)">
<path d="M32.1681 13.2271H16.5859V19.4709H25.5395C25.3956 20.3545 25.0724 21.2238 24.5991 22.0164C24.0569 22.9245 23.3865 23.6159 22.6994 24.1424C20.6412 25.7196 18.2416 26.0421 16.5751 26.0421C12.3653 26.0421 8.76829 23.3213 7.37582 19.6241C7.31963 19.49 7.28231 19.3514 7.23687 19.2144C6.92917 18.2734 6.76104 17.2768 6.76104 16.241C6.76104 15.163 6.9431 14.1312 7.27506 13.1566C8.58445 9.31284 12.2625 6.44195 16.5781 6.44195C17.4461 6.44195 18.282 6.54527 19.0747 6.75136C20.8863 7.22234 22.1678 8.14994 22.953 8.88366L27.6909 4.24372C24.8089 1.60122 21.0518 3.99528e-09 16.5702 3.99528e-09C12.9875 -7.71119e-05 9.67972 1.1162 6.96913 3.00275C4.77092 4.5327 2.96808 6.5811 1.75138 8.96009C0.619679 11.1659 0 13.6103 0 16.2386C0 18.867 0.620626 21.3368 1.75233 23.5222V23.537C2.94769 25.8571 4.69572 27.8547 6.82026 29.3776C8.67628 30.7081 12.0043 32.48 16.5702 32.48C19.196 32.48 21.5231 32.0066 23.5754 31.1194C25.0559 30.4794 26.3677 29.6447 27.5553 28.5718C29.1246 27.1543 30.3536 25.4009 31.1924 23.3835C32.0313 21.3662 32.48 19.085 32.48 16.6117C32.48 15.4599 32.3643 14.2901 32.1681 13.227V13.2271Z" fill="white"/>
</g>
<defs>
<clipPath id="clip0_3_426">
<rect width="32.48" height="32.48" fill="white"/>
</clipPath>
</defs>
</svg>
