<svg width="49" height="85" viewBox="0 0 49 85" fill="none" xmlns="http://www.w3.org/2000/svg">
<path d="M41.3027 0.5C43.4881 0.500061 45.2997 1.16443 46.5664 2.42969C47.8332 3.69508 48.4988 5.50587 48.5 7.68945V76.8223C48.5 78.9784 47.8289 80.7769 46.5664 82.0371C45.304 83.2973 43.5026 83.9668 41.3428 83.9668H7.65723C5.50019 83.9668 3.69896 83.2956 2.43652 82.0342C1.17426 80.7728 0.50201 78.9735 0.501953 76.8184V43.4092L0.5 43.4111V7.6875C0.5 5.50665 1.1668 3.69613 2.43457 2.43066C3.70223 1.16535 5.5156 0.5 7.7002 0.5H41.3027ZM3.52051 76.7061C3.52051 78.1703 3.91196 79.2129 4.59277 79.8906C5.2739 80.5685 6.32156 80.9579 7.79395 80.958H41.3906C41.6869 80.958 41.9404 80.9645 42.1973 80.9482L42.3672 80.9326C44.1108 80.7319 45.5544 79.3258 45.6123 77.6816C45.6986 75.1816 45.6449 72.6867 45.6377 70.1172H3.52051V76.7061ZM7.12207 3.51758H7.11816C5.40077 3.58209 3.92059 4.71646 3.68457 6.29102C3.58181 6.97834 3.56956 7.68834 3.58594 8.43164C3.59847 9.00037 3.62821 9.61473 3.64062 10.2246C5.41305 10.2258 7.17837 10.232 8.94727 10.2197H8.94824C9.33456 10.2173 9.7616 10.2701 10.1133 10.498C10.4966 10.7466 10.7076 11.1477 10.752 11.6582C10.7937 12.1399 10.6188 12.5662 10.2441 12.8535C9.8959 13.1205 9.4267 13.2283 8.92871 13.2334H3.56836V67.0068H45.5869V13.2334H17.0615C17.0164 13.2334 16.9613 13.2382 16.8867 13.2451C16.8195 13.2513 16.7279 13.2601 16.6416 13.2646C16.4932 13.2725 16.2024 13.281 15.9561 13.1143L15.9541 13.1133C15.7689 12.9867 15.5439 12.8219 15.3496 12.6289C15.1624 12.443 14.9565 12.185 14.8809 11.8652L14.8799 11.8633C14.7776 11.4227 14.9006 11.0208 15.1768 10.7275C15.4369 10.4514 15.8034 10.2991 16.1699 10.2451C16.4923 10.1979 16.8631 10.2246 17.085 10.2246H45.6504V7.68262C45.6504 6.27976 45.2562 5.25542 44.5791 4.58105C43.9017 3.9064 42.8718 3.51367 41.4619 3.51367H7.68848C7.47764 3.51367 7.30252 3.50935 7.12207 3.51758Z" fill="#0EA5E9" stroke="#0EA5E9"/>
<path d="M24.6101 16.0864C29.6626 16.0864 34.715 16.0864 39.7674 16.0864C40.9692 16.0864 41.2595 16.3725 41.2595 17.5593C41.2595 26.7496 41.2595 35.9377 41.2595 45.1281C41.2595 46.3059 40.9647 46.592 39.7584 46.592C29.6536 46.592 19.5465 46.592 9.4416 46.592C8.1858 46.592 7.90674 46.3171 7.90674 45.0767C7.90674 35.9154 7.90674 26.7541 7.90674 17.5928C7.90674 16.3569 8.18355 16.0864 9.4506 16.0864C14.503 16.0864 19.5555 16.0864 24.6079 16.0864H24.6101ZM23.091 31.3403C18.689 27.3464 14.386 23.4396 9.99973 19.4613V43.2239C14.404 39.2254 18.7115 35.3164 23.091 31.3403ZM39.2138 19.4278C34.7825 23.4485 30.4593 27.371 26.0842 31.3403C30.4773 35.3254 34.7915 39.2411 39.2138 43.2529V19.4255V19.4278ZM11.5661 18.1359C16.0041 22.1612 20.2869 26.0456 24.5921 29.9524C28.9469 25.9987 33.2184 22.1209 37.6047 18.1359H11.5661ZM24.5876 32.726C20.2239 36.6887 15.9546 40.5642 11.5796 44.538H37.6024C33.2027 40.5441 28.9267 36.6641 24.5876 32.726Z" fill="black"/>
<path d="M24.5001 57.6574C19.5872 57.6574 14.6743 57.6574 9.76138 57.6574C9.48232 57.6574 9.12223 57.7423 8.93994 57.6038C8.61586 57.3602 8.19727 56.978 8.19727 56.6517C8.19727 56.3276 8.61811 55.9432 8.93994 55.6996C9.12448 55.561 9.48232 55.6481 9.76363 55.6481C19.6457 55.6481 29.5278 55.6481 39.4098 55.6481C39.6349 55.6481 39.8622 55.6325 40.0827 55.6593C40.6679 55.7286 41.019 56.0773 41.019 56.6539C41.019 57.2283 40.6656 57.5792 40.0827 57.6485C39.8329 57.6775 39.5786 57.6597 39.3243 57.6597C34.3821 57.6597 29.4422 57.6597 24.5001 57.6597V57.6574Z" fill="#0EA5E9"/>
<path d="M24.5316 62.686C19.6187 62.686 14.7058 62.686 9.7929 62.686C9.51158 62.686 9.15825 62.7754 8.9692 62.6413C8.63838 62.4066 8.17702 62.0132 8.19952 61.7182C8.22428 61.3606 8.65863 60.9896 8.99171 60.7169C9.14474 60.5918 9.48007 60.6789 9.73213 60.6789C19.6435 60.6789 29.5525 60.6789 39.4638 60.6789C39.6889 60.6789 39.9815 60.5985 40.1232 60.708C40.4653 60.974 40.9109 61.2936 40.9919 61.6601C41.1112 62.201 40.6971 62.5899 40.1142 62.6726C39.8667 62.7083 39.6101 62.6882 39.3581 62.6882C34.4159 62.6882 29.476 62.6882 24.5338 62.6882L24.5316 62.686Z" fill="#0EA5E9"/>
<path d="M16.8348 52.4613C14.3953 52.4613 11.9579 52.4635 9.51837 52.4613C8.62941 52.4613 8.14555 52.1059 8.13879 51.4689C8.12979 50.8275 8.61591 50.4542 9.49361 50.4542C14.3998 50.4498 19.3059 50.452 24.2121 50.4542C25.1303 50.4542 25.5781 50.7873 25.5871 51.4443C25.5961 52.0925 25.1213 52.459 24.2368 52.4613C21.7702 52.4657 19.3037 52.4613 16.8348 52.4613Z" fill="#0EA5E9"/>
<path d="M24.5875 78.7424C22.5351 78.7602 20.7616 77.0102 20.7549 74.9607C20.7504 72.8889 22.4428 71.1724 24.5335 71.1277C26.6243 71.0852 28.4157 72.8509 28.4044 74.9473C28.3954 77.0125 26.6715 78.7245 24.5853 78.7401L24.5875 78.7424ZM26.388 74.9451C26.397 73.9975 25.5935 73.1727 24.6371 73.1437C23.6513 73.1146 22.7916 73.9393 22.7826 74.925C22.7736 75.8659 23.5793 76.6973 24.5335 76.7309C25.5035 76.7644 26.3812 75.9218 26.3902 74.9451H26.388Z" fill="black"/>
</svg>
