<svg width="184" height="50" viewBox="0 0 184 50" fill="none" xmlns="http://www.w3.org/2000/svg">
<path d="M35.7 31.02H32.3L27.9 26.52L32.3 22.02H35.7L31.28 26.52L35.7 31.02ZM39.462 31.02L43.882 26.52L39.462 22.02H42.882L47.282 26.52L42.882 31.02H39.462ZM56.6641 32.24C55.3441 32.24 54.1841 31.9467 53.1841 31.36C52.1974 30.76 51.4307 29.9267 50.8841 28.86C50.3374 27.78 50.0641 26.5267 50.0641 25.1C50.0641 23.66 50.3441 22.3933 50.9041 21.3C51.4774 20.1933 52.2907 19.3267 53.3441 18.7C54.3974 18.0733 55.6507 17.76 57.1041 17.76C58.7574 17.76 60.1241 18.1533 61.2041 18.94C62.2974 19.7267 63.0041 20.82 63.3241 22.22H60.3041C60.1041 21.6067 59.7307 21.1267 59.1841 20.78C58.6374 20.42 57.9374 20.24 57.0841 20.24C56.1774 20.24 55.4041 20.44 54.7641 20.84C54.1241 21.24 53.6374 21.8 53.3041 22.52C52.9841 23.24 52.8241 24.1 52.8241 25.1C52.8241 26.1133 52.9841 26.9733 53.3041 27.68C53.6374 28.3867 54.1107 28.9267 54.7241 29.3C55.3507 29.66 56.0841 29.84 56.9241 29.84C58.1507 29.84 59.0774 29.5133 59.7041 28.86C60.3441 28.1933 60.7241 27.3333 60.8441 26.28H57.4041V24.26H63.5641V32H61.0841L60.8641 30.22C60.5707 30.66 60.2307 31.0333 59.8441 31.34C59.4574 31.6333 58.9974 31.8533 58.4641 32C57.9441 32.16 57.3441 32.24 56.6641 32.24ZM72.3714 32.24C70.9714 32.24 69.7647 31.94 68.7514 31.34C67.7381 30.7267 66.9581 29.88 66.4114 28.8C65.8647 27.7067 65.5914 26.4467 65.5914 25.02C65.5914 23.5933 65.8647 22.3333 66.4114 21.24C66.9581 20.1467 67.7381 19.2933 68.7514 18.68C69.7647 18.0667 70.9714 17.76 72.3714 17.76C74.0781 17.76 75.4714 18.18 76.5514 19.02C77.6314 19.86 78.3047 21.0467 78.5714 22.58H75.6114C75.4381 21.8333 75.0781 21.2533 74.5314 20.84C73.9847 20.4133 73.2581 20.2 72.3514 20.2C71.5114 20.2 70.7914 20.4 70.1914 20.8C69.5914 21.1867 69.1314 21.74 68.8114 22.46C68.5047 23.1667 68.3514 24.02 68.3514 25.02C68.3514 26.0067 68.5047 26.86 68.8114 27.58C69.1314 28.3 69.5914 28.8533 70.1914 29.24C70.7914 29.6267 71.5114 29.82 72.3514 29.82C73.2581 29.82 73.9847 29.6267 74.5314 29.24C75.0781 28.84 75.4381 28.2867 75.6114 27.58H78.5714C78.3047 29.0333 77.6314 30.1733 76.5514 31C75.4714 31.8267 74.0781 32.24 72.3714 32.24ZM80.8366 32V18H90.0366V20.18H83.5366V23.84H89.4366V25.94H83.5366V29.82H90.0366V32H80.8366ZM96.0977 32V27.08L91.3577 18H94.4177L97.7777 25.04H97.1377L100.478 18H103.498L98.7977 27.08V32H96.0977ZM102.553 32L107.673 18H110.733L115.833 32H112.973L109.173 21.08L105.373 32H102.553ZM104.813 28.82L105.533 26.72H112.653L113.353 28.82H104.813ZM118.199 32L123.399 20.3H116.619V18H126.159V19.9L120.999 32H118.199ZM135.915 31.02H132.515L128.115 26.52L132.515 22.02H135.915L131.495 26.52L135.915 31.02ZM138.237 34.28L143.237 16.42H145.857L140.857 34.28H138.237ZM148.193 31.02L152.613 26.52L148.193 22.02H151.613L156.013 26.52L151.613 31.02H148.193Z" fill="#0EA5E9"/>
</svg>
