<svg width="33" height="33" viewBox="0 0 33 33" fill="none" xmlns="http://www.w3.org/2000/svg">
<g clip-path="url(#clip0_3_429)">
<path d="M16.24 2.92447C20.5791 2.92447 21.093 2.9435 22.7994 3.01962C24.3854 3.08941 25.2418 3.35584 25.8127 3.57788C26.5676 3.86969 27.1132 4.22494 27.6778 4.78953C28.2487 5.36047 28.5976 5.89969 28.8894 6.65459C29.1115 7.22553 29.3779 8.08828 29.4477 9.66787C29.5238 11.3807 29.5428 11.8945 29.5428 16.2273C29.5428 20.5664 29.5238 21.0803 29.4477 22.7868C29.3779 24.3727 29.1115 25.2291 28.8894 25.8C28.5976 26.5549 28.2424 27.1005 27.6778 27.6651C27.1068 28.236 26.5676 28.5849 25.8127 28.8768C25.2418 29.0988 24.379 29.3652 22.7994 29.435C21.0866 29.5111 20.5728 29.5302 16.24 29.5302C11.9009 29.5302 11.387 29.5111 9.68056 29.435C8.09463 29.3652 7.23822 29.0988 6.66728 28.8768C5.91238 28.5849 5.36681 28.2297 4.80222 27.6651C4.23128 27.0942 3.88238 26.5549 3.59056 25.8C3.36853 25.2291 3.10209 24.3663 3.03231 22.7868C2.95619 21.0739 2.93716 20.5601 2.93716 16.2273C2.93716 11.8882 2.95619 11.3743 3.03231 9.66787C3.10209 8.08194 3.36853 7.22553 3.59056 6.65459C3.88238 5.89969 4.23763 5.35413 4.80222 4.78953C5.37316 4.21859 5.91238 3.86969 6.66728 3.57788C7.23822 3.35584 8.10097 3.08941 9.68056 3.01962C11.387 2.9435 11.9009 2.92447 16.24 2.92447ZM16.24 0C11.8311 0 11.2792 0.0190312 9.54734 0.0951563C7.82184 0.171281 6.63556 0.450406 5.60788 0.850062C4.53578 1.26875 3.62863 1.82066 2.72781 2.72781C1.82066 3.62863 1.26875 4.53578 0.850063 5.60153C0.450406 6.63556 0.171281 7.8155 0.0951563 9.541C0.0190313 11.2792 0 11.8311 0 16.24C0 20.6489 0.0190313 21.2008 0.0951563 22.9327C0.171281 24.6582 0.450406 25.8444 0.850063 26.8721C1.26875 27.9442 1.82066 28.8514 2.72781 29.7522C3.62863 30.653 4.53578 31.2113 5.60153 31.6236C6.63556 32.0233 7.8155 32.3024 9.541 32.3785C11.2728 32.4546 11.8248 32.4737 16.2337 32.4737C20.6426 32.4737 21.1945 32.4546 22.9263 32.3785C24.6518 32.3024 25.8381 32.0233 26.8658 31.6236C27.9315 31.2113 28.8387 30.653 29.7395 29.7522C30.6403 28.8514 31.1986 27.9442 31.6109 26.8785C32.0106 25.8444 32.2897 24.6645 32.3658 22.939C32.4419 21.2072 32.461 20.6553 32.461 16.2463C32.461 11.8374 32.4419 11.2855 32.3658 9.55369C32.2897 7.82819 32.0106 6.64191 31.6109 5.61422C31.2113 4.53578 30.6593 3.62863 29.7522 2.72781C28.8514 1.827 27.9442 1.26875 26.8785 0.856406C25.8444 0.45675 24.6645 0.177625 22.939 0.1015C21.2008 0.0190313 20.6489 0 16.24 0Z" fill="white"/>
<path d="M16.24 7.89795C11.6344 7.89795 7.89795 11.6344 7.89795 16.24C7.89795 20.8455 11.6344 24.582 16.24 24.582C20.8455 24.582 24.582 20.8455 24.582 16.24C24.582 11.6344 20.8455 7.89795 16.24 7.89795ZM16.24 21.6512C13.2521 21.6512 10.8288 19.2279 10.8288 16.24C10.8288 13.2521 13.2521 10.8288 16.24 10.8288C19.2279 10.8288 21.6512 13.2521 21.6512 16.24C21.6512 19.2279 19.2279 21.6512 16.24 21.6512Z" fill="white"/>
<path d="M26.8594 7.56802C26.8594 8.64646 25.984 9.51555 24.9119 9.51555C23.8334 9.51555 22.9644 8.64011 22.9644 7.56802C22.9644 6.48958 23.8398 5.62048 24.9119 5.62048C25.984 5.62048 26.8594 6.49592 26.8594 7.56802Z" fill="white"/>
</g>
<defs>
<clipPath id="clip0_3_429">
<rect width="32.48" height="32.48" fill="white"/>
</clipPath>
</defs>
</svg>
