<svg width="38" height="46" viewBox="0 0 38 46" fill="none" xmlns="http://www.w3.org/2000/svg">
<path d="M14.7852 38.2925H35.7744V28.1831H14.7852V38.2925ZM2.21094 21.7788H23.2021V11.6704H2.21094V21.7788ZM26.2881 5.2876H30.0068V2.91943H26.2881V5.2876ZM8.00098 5.27881H24.2959V2.9126H8.00098V5.27881ZM37.75 39.7261L37.7324 39.771C37.6195 40.0523 37.457 40.2586 37.2383 40.3892C37.0766 40.4855 36.8988 40.5319 36.7158 40.5474L36.5312 40.5532C35.0694 40.5315 33.6091 40.5454 32.1416 40.5454H31.9678C31.9658 41.6441 31.9523 42.6963 31.9756 43.7495C31.9883 44.3283 31.8347 44.8113 31.3486 45.1284L31.2871 45.1694H6.71289L6.65039 45.1294C6.21879 44.8499 6.06125 44.4394 6.0293 43.9604L6.02246 43.7515C6.03405 37.2667 6.03027 30.7817 6.03027 24.2964V24.0298H1.39258C1.03733 24.0298 0.725308 23.9446 0.514648 23.6909C0.314128 23.4493 0.251 23.1062 0.250977 22.7065C0.250011 18.7125 0.250011 14.7182 0.250977 10.7241C0.250977 10.3368 0.315926 10.0017 0.515625 9.76514C0.724249 9.5182 1.03096 9.43277 1.37891 9.43213H6.03027V9.17822C6.03027 6.81413 6.04079 4.45456 6.02246 2.09326C6.01832 1.52355 6.15678 1.03146 6.65137 0.713379L6.71289 0.674316H30.9619V0.459473L31.3477 0.709473C31.8407 1.02884 31.9767 1.52066 31.9746 2.08936C31.9601 5.58321 31.9678 9.07561 31.9678 12.5708C31.9678 12.6712 31.9728 12.8085 31.9619 12.936C31.918 13.4869 31.5524 13.9665 31.0049 13.9731C30.4387 13.9797 30.0492 13.4845 30.0273 12.8999C30.0107 12.4368 30.0215 11.9656 30.0215 11.5151V7.56396H8.00293V9.4292H23.9336C24.3322 9.42921 24.6825 9.49122 24.9102 9.75928C25.1256 10.0132 25.1748 10.3911 25.1748 10.8462V22.6177C25.1748 23.0638 25.1217 23.4364 24.9111 23.6899C24.688 23.9585 24.3476 24.0288 23.96 24.0288H8.00293V42.9233H30.0039V40.5425H14.1064C13.6856 40.5424 13.3159 40.491 13.083 40.2095C12.97 40.0729 12.9076 39.9034 12.8721 39.7153C12.8367 39.5281 12.8252 39.3052 12.8252 39.0464V27.3179C12.8252 26.8884 12.8832 26.526 13.0957 26.2769C13.3185 26.0157 13.6532 25.9419 14.0352 25.9419H30.0234V25.7222C30.0234 24.0612 30.0215 22.3992 30.0244 20.7388L30.0342 20.5317C30.0539 20.3304 30.1042 20.1481 30.1914 19.9917C30.3105 19.7782 30.4909 19.6263 30.7207 19.5454C31.0576 19.4264 31.3847 19.5234 31.6152 19.7554C31.839 19.9806 31.9651 20.3217 31.9668 20.7046C31.9726 22.3665 31.9688 24.0295 31.9688 25.689V25.9429H32.7539C34.0101 25.9429 35.2573 25.9592 36.5059 25.9341H36.5068C36.7573 25.9289 36.9984 25.9699 37.2139 26.0942C37.4311 26.2196 37.5992 26.4157 37.7256 26.6792L37.75 26.731V39.7261Z" fill="#0EA5E9" stroke="#0EA5E9" stroke-width="0.5"/>
</svg>
