<svg width="71" height="86" viewBox="0 0 71 86" fill="none" xmlns="http://www.w3.org/2000/svg">
<path d="M27.3047 72.8169H67.4609V52.9741H27.3047V72.8169ZM3.51465 41.1538H43.6738V21.312H3.51465V41.1538ZM49.0674 9.53271H56.5488V4.53076H49.0674V9.53271ZM14.4688 9.51514H45.7432V4.51807H14.4688V9.51514ZM70.7529 75.2915L70.7354 75.3354C70.5358 75.8393 70.2577 76.1912 69.8945 76.4106C69.5345 76.6281 69.1187 76.6987 68.6738 76.6929H68.6729C65.9046 76.6512 63.1382 76.6782 60.3643 76.6782H59.8135C59.8113 78.8644 59.7834 80.9612 59.8291 83.0571C59.8521 84.1192 59.5769 84.9534 58.7451 85.5034L58.6826 85.5444H12.3193L12.2568 85.5034C11.4154 84.9511 11.17 84.1067 11.1719 83.0552C11.1938 70.6207 11.1865 58.1864 11.1865 45.7515V45.0103C8.12631 45.0104 5.15623 45.0124 2.18848 45.0103V45.0093C1.54742 45.0092 1.03619 44.8545 0.698242 44.4419C0.370928 44.0422 0.250977 43.4531 0.250977 42.7017C0.24915 35.0431 0.24915 27.3846 0.250977 19.7261C0.250977 19.0008 0.373047 18.4282 0.698242 18.0376C1.03305 17.6356 1.53631 17.4802 2.16309 17.479H11.1865V16.7622C11.1865 12.2305 11.2066 7.7042 11.1719 3.17529C11.1643 2.12249 11.4135 1.27595 12.2568 0.726074L12.3193 0.685059H58.3555V0.463379L58.7422 0.717285C59.5835 1.26951 59.8309 2.11635 59.8271 3.16846C59.7998 9.86839 59.8125 16.5658 59.8125 23.2671C59.8125 23.4728 59.8222 23.7163 59.8027 23.9478C59.7264 24.9256 59.0987 25.7171 58.2119 25.728C57.2934 25.7388 56.6259 24.9215 56.5879 23.8892C56.5566 23.0067 56.5762 22.1147 56.5762 21.2437V13.438H14.4717V17.4722H44.8359C45.5804 17.4722 46.1524 17.5928 46.5146 18.0249C46.864 18.4418 46.9609 19.0873 46.9609 19.9604V42.5327C46.9609 43.385 46.8574 44.0229 46.5146 44.4409C46.1586 44.875 45.6023 45.0083 44.8848 45.0083H14.4717V81.6968H56.5439V76.6733H26.2441C25.4477 76.6733 24.8468 76.5686 24.4775 76.1167C24.2969 75.8954 24.19 75.6123 24.127 75.2739C24.064 74.936 24.041 74.5245 24.041 74.0327V51.5444C24.041 50.7293 24.1535 50.1095 24.499 49.6987C24.8557 49.2748 25.4052 49.1353 26.1084 49.1353H56.5801V48.4839C56.5801 45.2988 56.5766 42.1127 56.582 38.9292C56.5821 38.4101 56.6738 37.9639 56.8691 37.6089C57.0673 37.2489 57.3657 36.995 57.75 36.8579L57.8535 36.8247C58.3673 36.6809 58.8565 36.8421 59.2129 37.2056C59.586 37.5862 59.8076 38.178 59.8105 38.8647C59.8215 42.0509 59.8145 45.2378 59.8145 48.4204V49.1372H61.5244C63.8977 49.1372 66.2624 49.1679 68.6279 49.1196C69.0758 49.1102 69.4888 49.1859 69.8516 49.3979C70.2157 49.6109 70.5058 49.9475 70.7295 50.4204L70.7529 50.4712V75.2915Z" fill="#0EA5E9" stroke="#0EA5E9" stroke-width="0.5"/>
<path d="M58.3071 29.1001C59.3247 29.1653 60.0364 30.1517 60.0571 31.1841C60.0791 32.272 59.3102 33.3793 58.1948 33.3794C57.1187 33.3794 56.3566 32.337 56.3345 31.2837C56.3124 30.2238 57.023 29.1618 58.1001 29.1001H58.3071Z" fill="#0EA5E9" stroke="#0EA5E9"/>
<path d="M13.21 25.6313C14.7351 25.6313 16.2584 25.6248 17.7835 25.6335C18.8612 25.6401 19.3616 26.2487 19.3653 27.5581C19.3726 29.999 19.3726 32.4376 19.3653 34.8784C19.3616 36.2186 18.852 36.8294 17.7233 36.8316C14.7205 36.8382 11.7178 36.8382 8.71322 36.8316C7.58262 36.8294 7.06755 36.2208 7.0639 34.8872C7.05659 32.4464 7.05842 30.0077 7.0639 27.5669C7.06755 26.2223 7.56618 25.6357 8.70591 25.6313C10.2073 25.6248 11.7086 25.6313 13.21 25.6313ZM16.5945 33.5009V28.9774H9.84746V33.5009H16.5945Z" fill="black"/>
<path d="M31.6849 28.9245C29.5004 28.9245 27.3178 28.9245 25.1333 28.9245C24.9507 28.9245 24.768 28.9333 24.5872 28.9201C23.7653 28.8542 23.1881 28.1534 23.2009 27.2438C23.2119 26.3233 23.789 25.651 24.631 25.6378C25.8822 25.6181 27.1333 25.6313 28.3845 25.6313C31.5918 25.6313 34.7991 25.6313 38.0064 25.6313C39.5077 25.6313 40.1598 26.1388 40.1434 27.2944C40.1269 28.417 39.4712 28.9245 38.0319 28.9245C35.9169 28.9245 33.8018 28.9245 31.6849 28.9245Z" fill="black"/>
<path d="M31.7053 33.5429C34.0487 33.5429 36.392 33.532 38.7336 33.5495C39.5683 33.5561 40.1436 34.2526 40.1436 35.1775C40.1436 36.0563 39.5884 36.7461 38.8048 36.8274C38.624 36.845 38.4414 36.8362 38.2587 36.8362C33.8678 36.8362 29.4788 36.8362 25.0879 36.8362C24.9509 36.8362 24.814 36.8406 24.6788 36.8362C23.8039 36.7945 23.203 36.12 23.2012 35.1841C23.2012 34.2328 23.7911 33.5539 24.6751 33.5495C27.0185 33.5364 29.3601 33.5451 31.7035 33.5473L31.7053 33.5429Z" fill="black"/>
<path d="M36.9799 68.4944C35.4548 68.4944 33.9315 68.5032 32.4064 68.4922C31.3707 68.4856 30.8593 67.8661 30.8538 66.6138C30.8447 64.1466 30.8465 61.6794 30.8538 59.21C30.8575 57.9225 31.378 57.2964 32.4557 57.2942C35.4822 57.2854 38.5068 57.2854 41.5333 57.2942C42.6456 57.2964 43.1516 57.9181 43.1552 59.2693C43.1607 61.7101 43.1625 64.1488 43.1552 66.5896C43.1516 67.8836 42.6401 68.4856 41.5534 68.4922C40.0283 68.501 38.505 68.4922 36.9799 68.4922V68.4944ZM33.6173 65.1396H40.3643V60.6314H33.6173V65.1396Z" fill="black"/>
<path d="M55.4545 60.5878C53.1806 60.5878 50.9048 60.5922 48.6308 60.5878C47.6189 60.5856 47.0089 59.9793 46.9906 58.9818C46.9723 57.9668 47.6189 57.2968 48.6454 57.2968C53.1952 57.2924 57.745 57.2924 62.2929 57.2968C63.2938 57.2968 63.9148 57.9251 63.9331 58.9159C63.9513 59.9397 63.3194 60.5856 62.2801 60.5878C60.0061 60.5922 57.7303 60.5878 55.4564 60.5878H55.4545Z" fill="black"/>
<path d="M55.4691 68.497C53.1951 68.497 50.9193 68.4992 48.6453 68.497C47.6006 68.497 46.9741 67.8555 46.9906 66.8273C47.007 65.8431 47.6353 65.2059 48.6289 65.2059C53.2006 65.2015 57.7723 65.2015 62.3458 65.2059C63.2408 65.2059 63.8216 65.753 63.9239 66.6428C64.0134 67.4117 63.6024 68.2048 62.9668 68.4179C62.7312 68.497 62.4718 68.4948 62.2234 68.4948C59.9714 68.4992 57.7193 68.497 55.4673 68.497H55.4691Z" fill="black"/>
</svg>
