<svg width="33" height="33" viewBox="0 0 33 33" fill="none" xmlns="http://www.w3.org/2000/svg">
<path d="M0 32.4799L2.28307 24.1394C0.874251 21.6979 0.13398 18.9304 0.135333 16.0924C0.139393 7.22002 7.35941 0 16.2305 0C20.5354 0.00135333 24.5765 1.67813 27.6161 4.72042C30.6543 7.7627 32.327 11.8065 32.3256 16.1073C32.3216 24.9811 25.1016 32.2011 16.2305 32.2011C13.5374 32.1998 10.8835 31.5245 8.53275 30.2415L0 32.4799ZM8.92792 27.3278C11.1961 28.6744 13.3614 29.4809 16.2251 29.4823C23.598 29.4823 29.6041 23.4816 29.6082 16.1046C29.6109 8.71274 23.6332 2.72019 16.2359 2.71749C8.85755 2.71749 2.85553 8.71815 2.85282 16.0938C2.85147 19.105 3.73384 21.3596 5.21573 23.7185L3.86376 28.6554L8.92792 27.3278ZM24.3383 19.9332C24.2381 19.7654 23.9702 19.6652 23.5669 19.4636C23.165 19.2619 21.1877 18.2889 20.8183 18.1549C20.4502 18.0209 20.1822 17.9533 19.9129 18.3566C19.6449 18.7585 18.8735 19.6652 18.6394 19.9332C18.4053 20.2012 18.1698 20.235 17.7679 20.0333C17.3659 19.8317 16.0694 19.4081 14.5334 18.0372C13.3384 16.9708 12.5305 15.654 12.2964 15.2507C12.0622 14.8487 12.272 14.6309 12.4723 14.4306C12.6536 14.2506 12.8742 13.961 13.0759 13.7255C13.2802 13.4927 13.3465 13.3249 13.4819 13.0556C13.6159 12.7876 13.5495 12.5521 13.448 12.3505C13.3465 12.1502 12.5427 10.1703 12.2084 9.36505C11.8809 8.58147 11.5493 8.68703 11.303 8.67485L10.5316 8.66131C10.2637 8.66131 9.82788 8.76146 9.45978 9.16475C9.09167 9.56804 8.05231 10.5397 8.05231 12.5197C8.05231 14.4996 9.49361 16.4118 9.6939 16.6798C9.89555 16.9478 12.5291 21.0105 16.5634 22.7522C17.5229 23.1663 18.2727 23.414 18.8559 23.5994C19.8195 23.9052 20.6965 23.8619 21.3894 23.7591C22.1621 23.644 23.7685 22.786 24.1042 21.8468C24.4398 20.9062 24.4398 20.101 24.3383 19.9332Z" fill="white"/>
</svg>
